<mxfile host="app.diagrams.net" agent="Mozilla/5.0 (Windows NT 10.0; Win64; x64) AppleWebKit/537.36 (KHTML, like Gecko) Chrome/131.0.0.0 Safari/537.36" version="25.0.3">
  <diagram name="Page-1" id="wLRtRFrFZVXet6YPeFLi">
    <mxGraphModel dx="1467" dy="710" grid="1" gridSize="10" guides="1" tooltips="1" connect="1" arrows="1" fold="1" page="1" pageScale="1" pageWidth="850" pageHeight="1100" math="0" shadow="0">
      <root>
        <mxCell id="0" />
        <mxCell id="1" parent="0" />
        <mxCell id="6BzRVH5YOKNATUPte7h8-1" value="Place Order" style="ellipse;whiteSpace=wrap;html=1;" vertex="1" parent="1">
          <mxGeometry x="170" y="20" width="140" height="70" as="geometry" />
        </mxCell>
        <mxCell id="6BzRVH5YOKNATUPte7h8-2" style="edgeStyle=none;html=1;endArrow=open;endFill=0;" edge="1" parent="1" source="6BzRVH5YOKNATUPte7h8-9" target="6BzRVH5YOKNATUPte7h8-1">
          <mxGeometry relative="1" as="geometry" />
        </mxCell>
        <mxCell id="6BzRVH5YOKNATUPte7h8-3" style="edgeStyle=none;html=1;entryX=0;entryY=0.5;entryDx=0;entryDy=0;endArrow=open;endFill=0;" edge="1" parent="1" source="6BzRVH5YOKNATUPte7h8-9" target="6BzRVH5YOKNATUPte7h8-10">
          <mxGeometry relative="1" as="geometry" />
        </mxCell>
        <mxCell id="6BzRVH5YOKNATUPte7h8-9" value="Customer" style="shape=umlActor;verticalLabelPosition=bottom;verticalAlign=top;html=1;align=right;" vertex="1" parent="1">
          <mxGeometry x="50" y="100" width="30" height="60" as="geometry" />
        </mxCell>
        <mxCell id="6BzRVH5YOKNATUPte7h8-10" value="Customize Pizza" style="ellipse;whiteSpace=wrap;html=1;" vertex="1" parent="1">
          <mxGeometry x="190" y="130" width="140" height="70" as="geometry" />
        </mxCell>
        <mxCell id="6BzRVH5YOKNATUPte7h8-11" value="Search Recipes" style="ellipse;whiteSpace=wrap;html=1;" vertex="1" parent="1">
          <mxGeometry x="190" y="230" width="140" height="70" as="geometry" />
        </mxCell>
        <mxCell id="6BzRVH5YOKNATUPte7h8-12" value="Monitor/Track Ingredient usage" style="ellipse;whiteSpace=wrap;html=1;" vertex="1" parent="1">
          <mxGeometry x="200" y="350" width="140" height="70" as="geometry" />
        </mxCell>
        <mxCell id="6BzRVH5YOKNATUPte7h8-13" value="Manage Pizza menu items" style="ellipse;whiteSpace=wrap;html=1;" vertex="1" parent="1">
          <mxGeometry x="290" y="410" width="140" height="70" as="geometry" />
        </mxCell>
        <mxCell id="6BzRVH5YOKNATUPte7h8-14" value="Manage Side Dishes" style="ellipse;whiteSpace=wrap;html=1;" vertex="1" parent="1">
          <mxGeometry x="310" y="490" width="140" height="70" as="geometry" />
        </mxCell>
        <object id="6BzRVH5YOKNATUPte7h8-16">
          <mxCell style="rounded=1;fontSize=11;whiteSpace=wrap;html=1;dashed=1;arcSize=20;fillColor=none;strokeColor=#666666;fontColor=#333333;labelBackgroundColor=none;align=left;verticalAlign=bottom;labelBorderColor=none;spacingTop=0;spacing=10;dashPattern=8 4;metaEdit=1;rotatable=0;perimeter=rectanglePerimeter;noLabel=0;labelPadding=0;allowArrows=0;connectable=0;expand=0;recursiveResize=0;editable=1;pointerEvents=0;absoluteArcSize=1;points=[[0.25,0,0],[0.5,0,0],[0.75,0,0],[1,0.25,0],[1,0.5,0],[1,0.75,0],[0.75,1,0],[0.5,1,0],[0.25,1,0],[0,0.75,0],[0,0.5,0],[0,0.25,0]];" vertex="1" parent="1">
            <mxGeometry x="160" y="10" width="290" height="800" as="geometry" />
          </mxCell>
        </object>
        <mxCell id="6BzRVH5YOKNATUPte7h8-17" value="View Menu" style="ellipse;whiteSpace=wrap;html=1;" vertex="1" parent="1">
          <mxGeometry x="280" y="70" width="140" height="70" as="geometry" />
        </mxCell>
        <mxCell id="6BzRVH5YOKNATUPte7h8-18" value="Manage Recipes" style="ellipse;whiteSpace=wrap;html=1;" vertex="1" parent="1">
          <mxGeometry x="290" y="180" width="140" height="70" as="geometry" />
        </mxCell>
        <mxCell id="6BzRVH5YOKNATUPte7h8-19" value="Manage Ingredients" style="ellipse;whiteSpace=wrap;html=1;" vertex="1" parent="1">
          <mxGeometry x="300" y="290" width="140" height="70" as="geometry" />
        </mxCell>
        <mxCell id="6BzRVH5YOKNATUPte7h8-22" style="edgeStyle=none;html=1;endArrow=open;endFill=0;" edge="1" parent="1" source="6BzRVH5YOKNATUPte7h8-9" target="6BzRVH5YOKNATUPte7h8-17">
          <mxGeometry relative="1" as="geometry">
            <mxPoint x="140" y="340.69744552279803" as="sourcePoint" />
            <mxPoint x="343.44000000000005" y="214.53000000000003" as="targetPoint" />
          </mxGeometry>
        </mxCell>
        <mxCell id="6BzRVH5YOKNATUPte7h8-24" value="Store Manager" style="shape=umlActor;verticalLabelPosition=bottom;verticalAlign=top;html=1;align=right;" vertex="1" parent="1">
          <mxGeometry x="600" y="300" width="40" height="70" as="geometry" />
        </mxCell>
        <mxCell id="6BzRVH5YOKNATUPte7h8-25" style="edgeStyle=none;html=1;entryX=1;entryY=0.5;entryDx=0;entryDy=0;endArrow=open;endFill=0;exitX=0;exitY=0.3333333333333333;exitDx=0;exitDy=0;exitPerimeter=0;" edge="1" parent="1" source="6BzRVH5YOKNATUPte7h8-24" target="6BzRVH5YOKNATUPte7h8-18">
          <mxGeometry relative="1" as="geometry">
            <mxPoint x="490" y="169" as="sourcePoint" />
            <mxPoint x="620" y="200" as="targetPoint" />
          </mxGeometry>
        </mxCell>
        <mxCell id="6BzRVH5YOKNATUPte7h8-26" style="edgeStyle=none;html=1;entryX=1;entryY=0.5;entryDx=0;entryDy=0;endArrow=open;endFill=0;" edge="1" parent="1" target="6BzRVH5YOKNATUPte7h8-11">
          <mxGeometry relative="1" as="geometry">
            <mxPoint x="600" y="330" as="sourcePoint" />
            <mxPoint x="460" y="225" as="targetPoint" />
          </mxGeometry>
        </mxCell>
        <mxCell id="6BzRVH5YOKNATUPte7h8-27" style="edgeStyle=none;html=1;entryX=1;entryY=0.5;entryDx=0;entryDy=0;endArrow=open;endFill=0;" edge="1" parent="1" target="6BzRVH5YOKNATUPte7h8-19">
          <mxGeometry relative="1" as="geometry">
            <mxPoint x="600" y="340" as="sourcePoint" />
            <mxPoint x="340" y="275" as="targetPoint" />
          </mxGeometry>
        </mxCell>
        <mxCell id="6BzRVH5YOKNATUPte7h8-28" style="edgeStyle=none;html=1;entryX=1;entryY=0.5;entryDx=0;entryDy=0;endArrow=open;endFill=0;" edge="1" parent="1" target="6BzRVH5YOKNATUPte7h8-12">
          <mxGeometry relative="1" as="geometry">
            <mxPoint x="600" y="350" as="sourcePoint" />
            <mxPoint x="450" y="335" as="targetPoint" />
          </mxGeometry>
        </mxCell>
        <mxCell id="6BzRVH5YOKNATUPte7h8-29" style="edgeStyle=none;html=1;entryX=1;entryY=0.5;entryDx=0;entryDy=0;endArrow=open;endFill=0;" edge="1" parent="1" target="6BzRVH5YOKNATUPte7h8-13">
          <mxGeometry relative="1" as="geometry">
            <mxPoint x="600" y="360" as="sourcePoint" />
            <mxPoint x="350" y="395" as="targetPoint" />
          </mxGeometry>
        </mxCell>
        <mxCell id="6BzRVH5YOKNATUPte7h8-30" style="edgeStyle=none;html=1;endArrow=open;endFill=0;" edge="1" parent="1" target="6BzRVH5YOKNATUPte7h8-14">
          <mxGeometry relative="1" as="geometry">
            <mxPoint x="600" y="390" as="sourcePoint" />
            <mxPoint x="440" y="455" as="targetPoint" />
          </mxGeometry>
        </mxCell>
        <mxCell id="6BzRVH5YOKNATUPte7h8-31" value="Kicthen Staff" style="shape=umlActor;verticalLabelPosition=bottom;verticalAlign=top;html=1;align=right;" vertex="1" parent="1">
          <mxGeometry x="50" y="600" width="30" height="60" as="geometry" />
        </mxCell>
        <mxCell id="6BzRVH5YOKNATUPte7h8-32" value="View/Manage Orders" style="ellipse;whiteSpace=wrap;html=1;" vertex="1" parent="1">
          <mxGeometry x="190" y="550" width="140" height="70" as="geometry" />
        </mxCell>
        <mxCell id="6BzRVH5YOKNATUPte7h8-33" value="Access Recipes" style="ellipse;whiteSpace=wrap;html=1;" vertex="1" parent="1">
          <mxGeometry x="260" y="620" width="140" height="70" as="geometry" />
        </mxCell>
        <mxCell id="6BzRVH5YOKNATUPte7h8-34" value="View Inventory" style="ellipse;whiteSpace=wrap;html=1;" vertex="1" parent="1">
          <mxGeometry x="190" y="690" width="140" height="70" as="geometry" />
        </mxCell>
        <mxCell id="6BzRVH5YOKNATUPte7h8-35" style="edgeStyle=none;html=1;endArrow=open;endFill=0;exitX=1;exitY=0.3333333333333333;exitDx=0;exitDy=0;exitPerimeter=0;entryX=0;entryY=0.5;entryDx=0;entryDy=0;" edge="1" parent="1" source="6BzRVH5YOKNATUPte7h8-31" target="6BzRVH5YOKNATUPte7h8-32">
          <mxGeometry relative="1" as="geometry">
            <mxPoint x="610" y="400" as="sourcePoint" />
            <mxPoint x="434" y="508" as="targetPoint" />
          </mxGeometry>
        </mxCell>
        <mxCell id="6BzRVH5YOKNATUPte7h8-36" style="edgeStyle=none;html=1;endArrow=open;endFill=0;entryX=0;entryY=0.5;entryDx=0;entryDy=0;" edge="1" parent="1" source="6BzRVH5YOKNATUPte7h8-31" target="6BzRVH5YOKNATUPte7h8-33">
          <mxGeometry relative="1" as="geometry">
            <mxPoint x="70" y="630" as="sourcePoint" />
            <mxPoint x="200" y="595" as="targetPoint" />
          </mxGeometry>
        </mxCell>
        <mxCell id="6BzRVH5YOKNATUPte7h8-37" style="edgeStyle=none;html=1;endArrow=open;endFill=0;entryX=0;entryY=0.5;entryDx=0;entryDy=0;" edge="1" parent="1" source="6BzRVH5YOKNATUPte7h8-31" target="6BzRVH5YOKNATUPte7h8-34">
          <mxGeometry relative="1" as="geometry">
            <mxPoint x="70" y="660" as="sourcePoint" />
            <mxPoint x="270" y="665" as="targetPoint" />
          </mxGeometry>
        </mxCell>
        <mxCell id="6BzRVH5YOKNATUPte7h8-39" value="&lt;b&gt;Pizza Store Application&lt;/b&gt;" style="text;html=1;align=center;verticalAlign=middle;resizable=0;points=[];autosize=1;strokeColor=none;fillColor=none;" vertex="1" parent="1">
          <mxGeometry x="165" y="770" width="160" height="30" as="geometry" />
        </mxCell>
      </root>
    </mxGraphModel>
  </diagram>
</mxfile>
